<svg xmlns:xlink="http://www.w3.org/1999/xlink" xmlns="http://www.w3.org/2000/svg" width="20" height="19" viewBox="0 0 20 19" fill="none" class="text-[#0D5990]"><path d="M3.35 3.64011C2.45 3.00011 2.23 1.76011 2.86 0.85011C3.49 -0.0498895 4.74 -0.26989 5.65 0.36011C6.55 1.00011 6.77 2.24011 6.14 3.15011C5.5 4.05011 4.26 4.27011 3.35 3.64011ZM14 17.0001H6.93C5.45 17.0001 4.19 15.9201 3.97 14.4601L2 5.00011H0L1.99 14.7601C2.37 17.2001 4.47 19.0001 6.94 19.0001H14V17.0001ZM14.23 13.0001H9.35L8.32 8.90011C9.9 9.79011 11.6 10.4401 13.47 10.1201V7.99011C11.84 8.30011 10.03 7.72011 8.78 6.74011L7.14 5.47011C6.91 5.29011 6.65 5.17011 6.38 5.09011C6.06 5.00011 5.72 4.97011 5.39 5.03011H5.37C4.14 5.25011 3.32 6.42011 3.53 7.64011L4.88 13.5601C5.16 14.9801 6.39 16.0001 7.83 16.0001H14.68L18.5 19.0001L20 17.5001L14.23 13.0001Z" fill="#0D5990"></path></svg>