<svg width="29" height="23" viewBox="0 0 29 23" fill="none" xmlns="http://www.w3.org/2000/svg">
<path fill-rule="evenodd" clip-rule="evenodd" d="M19.7238 13.8398C19.6211 13.7892 19.6269 13.755 19.7402 13.7408C19.8304 13.7297 19.9233 13.7123 20.0214 13.6906C20.3062 13.6275 20.8025 13.5462 21.0104 13.8118C21.0659 13.8825 21.1046 13.9469 20.9851 13.9238C20.5754 13.8443 20.0548 14.0038 19.7238 13.8398ZM20.2458 20.3253C20.3142 20.0103 20.4533 19.7037 20.6363 19.4123C20.6763 19.3488 20.7123 19.2937 20.7451 19.2466C20.7509 19.2386 20.7567 19.2302 20.7629 19.2217L20.4599 18.4825C18.7291 19.8917 16.3713 18.7694 14.2464 18.235C11.1147 17.4473 8.60549 18.8894 5.4072 18.4962L5.99497 21.045L6.00785 21.1036L5.99763 21.1663C5.98697 21.2303 5.96031 21.2849 5.92477 21.3276C5.86968 21.3933 5.79949 21.4302 5.71996 21.4417C5.63022 21.4546 5.54759 21.4324 5.47561 21.3773C5.42541 21.3391 5.38632 21.2862 5.36455 21.2245C5.27703 20.9779 5.12242 20.8482 4.96737 20.8149C4.90784 20.802 4.84831 20.8033 4.79455 20.8175C4.3174 20.9433 4.22144 21.7443 4.73946 22.0775C6.20866 23.0229 9.63309 21.7865 11.6079 21.8109C15.7622 21.862 18.4576 24.1455 22.0029 22.2467L21.7043 21.5186L21.5804 21.216L21.4413 20.8771C21.2303 21.0734 21.0397 21.2463 20.8344 21.4586L20.519 21.7847C20.2493 21.2516 20.1085 20.9597 20.2458 20.3253ZM5.67598 21.1143L5.11753 18.5633L4.98647 17.9644C4.79366 17.0843 3.37067 17.3593 3.58081 18.3181C3.78073 19.2306 4.05306 20.4945 4.25299 21.4071C4.02996 20.379 5.31123 20.0996 5.67154 21.1161C5.67287 21.1201 5.67465 21.1205 5.67598 21.1143ZM9.22658 17.1323C10.1911 17.6121 11.164 16.8431 11.3968 16.6432C11.4812 16.788 11.583 16.8786 11.6976 16.9288C11.6905 16.3633 11.8682 15.7413 12.2085 15.421C12.3609 15.6489 12.4142 15.8701 12.3973 16.0856C12.5608 15.9439 12.7296 15.76 12.9087 15.505C13.7075 14.3663 13.8372 13.9869 15.1354 13.6199C12.3751 13.2103 12.2885 15.3917 10.4705 16.7C10.0263 17.0199 9.65752 17.0888 9.22658 17.1323ZM14.6253 12.9811C12.9549 12.5874 11.9957 13.4267 10.6647 14.1699C9.61754 14.7546 9.21103 14.7915 8.0466 14.4783C6.27841 14.0024 6.50721 14.0753 4.86119 14.5742C4.63284 14.6435 4.39515 14.7013 4.13614 14.7319C3.01481 14.8661 0.0475333 14.4951 0.855659 12.8065C1.99166 10.4327 0.136387 10.164 1.08801 8.74851C0.188811 9.19856 0.577991 10.1297 0.816563 10.9077C0.948956 11.3386 1.09556 12.2138 0.357633 12.0126C0.339418 12.3427 0.226574 12.6452 0.3021 13.0028C0.202583 13.0188 0.103067 12.9757 0.00355069 12.8811C-0.040432 13.3942 0.336753 13.5804 0.440712 13.9598C0.366963 13.9545 0.293214 13.9487 0.219466 13.9434C0.290549 14.8625 2.02409 15.1549 2.41016 15.238C2.22801 15.3219 2.03919 15.3512 1.84594 15.3432C2.1436 15.7937 2.94595 15.6422 3.82071 15.4041C3.71542 15.6098 3.5888 15.6827 3.4613 15.7471C4.3565 15.9768 4.82609 15.3046 5.50805 15.0833C5.3992 15.4063 5.23882 15.6218 5.0269 15.7306C6.0425 15.7475 6.45923 14.735 7.41663 15.122C7.23137 15.3197 6.8955 15.4445 6.48188 15.5312C7.30334 16.5641 8.63348 15.1953 9.04887 15.437C8.87694 15.7418 8.6437 15.9288 8.39046 16.0785C9.15283 16.4099 9.85256 15.7897 10.5478 15.1104C10.5763 15.4028 10.5167 15.6489 10.4594 15.8959C11.8371 15.433 11.6212 13.1672 14.6253 12.9811ZM14.0758 12.5328C13.1313 12.0823 12.2543 11.8828 11.4421 11.9197C10.1684 11.9775 9.66818 12.7332 8.49487 12.8469C7.71917 12.922 7.33088 12.6336 6.66137 12.3471C5.7946 11.9761 4.93938 12.7749 3.88691 12.9473C2.98415 13.0952 1.95967 13.0299 1.91613 12.2063C1.94456 11.503 2.63585 10.8521 1.99343 10.0707C2.23956 11.188 1.43454 11.3159 1.49763 12.3884C1.55094 13.2987 2.38306 13.54 3.23827 13.5551C4.19523 13.5719 5.17884 13.1112 5.78127 12.9273C6.10737 12.8278 6.63693 12.8305 6.8453 13.1517C6.71735 13.2672 6.3757 13.2734 6.20377 13.2929C6.42146 13.5155 6.89683 13.6768 7.39841 13.6572C8.14923 13.6284 8.98579 13.3249 9.32387 13.2623C9.32387 13.4298 9.36608 13.5595 9.44027 13.6608C9.71883 13.1685 10.1853 12.7203 10.6407 12.6154C10.6576 12.8891 10.5927 13.1072 10.4692 13.2849C10.682 13.2445 10.9201 13.1708 11.2031 13.0406C12.4666 12.4586 12.7692 12.1965 14.0758 12.5328ZM15.9866 13.6026C16.2145 13.3725 13.3801 10.5447 13.0766 10.8144C13.1481 11.0183 13.1233 11.1014 13.0766 11.1573C11.619 10.3057 11.2476 10.3488 10.9521 10.5487C11.1343 10.6984 11.3115 10.8486 11.1956 11.0356C10.1151 10.4923 9.60732 10.6873 9.19281 11.0023C9.61665 10.9938 10.0036 11.0018 9.96718 11.2013C9.48426 11.3124 9.00089 11.3026 8.51797 11.3008C8.70856 11.4479 8.83607 11.5927 8.84984 11.7322C7.84002 12.1756 7.78137 10.271 6.40458 10.9023C6.73778 11.0965 6.85907 11.1169 7.08209 11.4057C6.13713 11.1449 5.82525 11.1738 4.93361 11.5949C4.49556 11.802 4.32407 11.5941 3.83982 11.6252C3.21117 11.666 2.95172 12.0557 2.20002 12.1298C2.802 12.3698 3.18274 11.957 3.75985 11.9393C4.2561 11.9241 4.49645 12.1596 4.88029 12.1618C5.78127 12.1667 5.60223 11.4732 6.96392 12.0987C8.17899 12.6572 8.60949 12.5914 9.77125 12.0277C11.9979 10.9468 14.3041 12.0223 15.9861 13.6013L15.9866 13.6026ZM22.2441 13.8878C21.3818 15.3357 17.4953 13.9038 16.3038 13.4911C16.2278 14.0526 15.0483 14.3445 14.1682 14.5582C13.8119 14.6449 13.9207 14.891 14.1655 15.0851C14.4085 15.2779 14.724 15.4739 14.9314 15.6649C14.9537 15.6969 14.9505 15.7155 14.9314 15.7262C14.8084 15.7928 14.6804 15.6036 14.6529 15.9026C14.632 16.1287 14.6964 16.501 14.8155 16.6276C14.8883 16.0563 15.0092 15.6902 15.5143 16.1887C16.334 16.9977 16.0936 17.1625 15.4406 17.1145C15.947 17.6175 16.5672 17.4655 16.6952 17.1372C16.8964 16.6196 15.4326 15.3224 15.1145 15.0287C15.8848 15.3535 17.0248 15.8413 18.2399 16.2007C18.1097 16.4788 17.9343 16.9586 18.251 16.9897C18.5984 17.0239 18.7761 16.557 19.2968 16.4708C20.0352 16.6272 20.77 16.7076 21.4387 16.6494C23.9865 16.4277 24.8298 13.7865 22.8283 13.2045C22.8261 12.639 22.5409 12.089 22.1353 11.654C21.3938 10.8588 20.324 10.439 19.4483 9.81476C18.5909 9.20344 18.2821 8.77783 17.7339 7.83865C17.6824 7.75024 17.5722 7.46413 17.5002 7.45791C17.4176 7.4508 17.442 7.55432 17.474 7.69071C17.5397 7.96926 17.7326 8.40909 17.7779 8.49617C17.9143 8.75917 18.0675 9.00797 18.2404 9.24165C18.7744 9.96359 19.4399 10.3688 20.0974 10.7491C20.9944 11.2675 23.0007 12.6181 22.2441 13.8878ZM23.54 14.6497C23.0607 16.2491 19.9241 16.6898 18.4558 15.5516C20.8651 16.2926 22.5173 15.9297 23.54 14.6497ZM21.4475 13.7048C22.2654 13.5377 21.9971 13.958 21.6221 13.8949C21.412 13.8598 21.1823 13.7585 21.4475 13.7048ZM23.5254 12.4653C24.146 13.6937 24.9795 14.0571 24.2598 15.4423C24.1007 15.7484 23.9394 16.0723 23.9243 16.5663C23.5676 15.7413 24.2016 15.0727 24.1807 14.4143C24.1647 13.9202 23.6742 13.2259 23.5254 12.4653ZM24.3504 19.9299C24.4863 19.8068 24.6019 19.6433 24.6489 19.3434C25.1936 19.152 24.9688 18.5948 25.2132 18.1652C26.1475 18.3318 26.8263 17.8511 27.3594 17.4682C26.8103 18.0551 26.107 18.6442 25.3513 18.4918C25.3829 18.761 25.3735 18.9898 25.3238 19.1777C25.5579 19.1906 25.7534 18.9076 26.0817 18.948C25.6756 19.0813 25.6201 19.4061 25.0861 19.7033C25.4477 20.1271 26.1328 19.4136 26.3087 19.5043C25.6423 19.9881 25.2278 20.3239 24.3504 19.9299ZM21.1223 19.283C21.1223 19.283 21.2618 19.1151 21.3391 19.3226C21.8105 20.5847 23.0376 20.0152 24.1376 19.9921C24.2913 20.3479 24.581 20.5261 24.8769 20.6958C24.5485 20.7069 24.2482 20.6154 23.9199 20.6265C23.9434 20.8566 23.8759 21.0814 23.8039 21.1494C23.7369 20.9242 23.6076 20.7438 23.3339 20.6292C23.289 20.9619 23.1224 21.1814 23.0185 21.2929C23.0962 20.9948 22.9443 20.7002 22.7528 20.5794C22.3872 20.6398 22.0375 21.0752 21.7017 21.2542C21.6608 20.8895 21.6826 20.8437 21.6181 20.5154C21.3183 20.5932 21.0339 20.7842 20.6008 21.232C20.3804 20.5607 20.6661 19.8815 21.1223 19.283ZM21.3298 19.0293C21.7181 18.5833 22.181 18.1941 22.5595 17.904C22.8323 17.6948 23.1229 17.4513 23.2744 17.2318C23.3881 17.0666 23.3779 16.8582 23.2881 16.7707C23.2002 16.6854 23.0225 16.6832 22.8634 16.8013C22.8643 16.5023 23.0984 16.3011 23.3388 16.322C23.7546 16.3584 23.9759 16.9773 23.8866 17.3105C24.2242 15.5454 26.8947 14.2361 26.0719 12.9513C27.4403 13.9291 24.7151 15.7155 24.3695 17.3265C25.1599 16.4748 25.8485 16.2256 26.4473 15.744C27.1697 15.1633 27.4554 14.4938 27.2888 13.5706C28.2964 15.8044 25.5988 16.3069 24.6556 17.8192C26.1452 16.2136 27.1382 17.9524 28.5612 16.4028C27.2444 18.2874 25.6246 16.2113 24.8342 18.749C24.7569 18.9978 24.6072 19.088 24.4233 19.1026C24.3686 19.5371 24.2344 19.8495 23.7529 19.8779C22.7795 19.9357 21.9242 20.1471 21.5355 19.1924C21.4769 19.048 21.3987 19.02 21.332 19.0493C21.3209 19.0542 21.304 19.0591 21.3298 19.0293ZM22.2561 19.4989C22.2006 19.1671 22.6653 19.0898 22.8701 18.885C22.8314 19.0369 22.6986 19.1369 22.6986 19.1369C22.8012 19.4292 22.5351 19.6638 22.2561 19.4989ZM21.795 3.45238C22.5173 4.42666 24.0394 6.38678 23.772 7.68582C23.7608 7.74002 23.6813 8.03857 23.6622 7.82221C23.652 7.70537 23.6054 7.51167 23.5525 7.36328C23.3734 6.85726 23.1402 6.40721 22.8696 5.9816C22.4334 5.29521 21.9647 4.75009 21.464 4.12945C20.5799 3.03388 19.6562 1.81303 19.6638 0.972468C19.6651 0.818307 19.6971 0.681916 19.7673 0.545081C19.9361 0.214101 20.2884 -0.019585 20.6656 0.0012956C20.7207 0.00440549 20.7318 0.00840391 20.7061 0.0670474C20.2218 1.17461 20.9926 2.37103 21.795 3.45238ZM21.5462 4.65546C22.4409 5.75591 23.62 7.33307 23.5152 8.84048C23.5081 8.94443 23.4841 9.01463 23.4161 8.83203C23.4063 8.80627 23.3983 8.77783 23.3908 8.74851C23.0731 7.49434 21.978 6.2064 21.1348 5.265C20.3729 4.43066 19.7518 3.65097 19.3679 2.96191C18.2812 1.01112 19.4683 0.527755 19.4288 0.694356C19.1791 1.74505 20.4724 3.33465 21.5462 4.65546ZM20.9366 5.44359C21.3516 5.90697 21.8287 6.45564 22.241 7.04296C22.4605 7.35528 22.6608 7.67738 22.8217 8.00214C22.9665 8.29358 23.0638 8.53571 23.102 8.86358C23.1078 8.91245 23.0691 9.02174 23.0238 8.94666C22.1428 7.48012 20.4173 6.04824 19.3173 4.61859C18.7357 3.86288 18.0133 2.84462 18.4638 1.85257C18.4958 1.75705 18.6566 1.55046 18.67 1.73217C18.6717 1.75794 18.6749 1.79659 18.6775 1.83302C18.6993 2.1018 18.7988 2.38391 18.905 2.62959C19.2573 3.44438 19.989 4.40578 20.9366 5.44359ZM20.5177 6.38233C20.7838 6.66311 21.205 7.14692 21.2481 7.54188C21.2565 7.62007 21.2774 7.81332 21.1565 7.67294C20.164 6.52361 18.7699 5.67728 18.0475 4.31115C17.9498 4.12634 17.8561 3.94907 17.7921 3.76959C17.6788 3.45282 17.617 2.87127 17.984 2.70601C18.0262 2.6869 18.0626 2.68202 18.0689 2.73577C18.0964 2.97079 18.1639 3.20181 18.2572 3.42661C18.4669 3.93041 18.8046 4.39068 19.1054 4.78163C19.5167 5.31653 20.0112 5.84877 20.5177 6.38233ZM17.8654 5.58576C17.8925 5.65151 17.9231 5.71682 17.9569 5.78124C18.1248 6.102 18.3714 6.4041 18.646 6.68177C19.0489 7.08961 19.4763 7.44058 19.905 7.79289C20.3226 8.13586 20.1121 7.95371 20.5057 8.35134C20.7665 8.61479 20.9171 8.81515 20.9522 9.12703C20.9797 9.37093 20.9277 9.41136 20.7443 9.20566C20.0108 8.38332 19.6309 8.25626 18.7961 7.56098C18.3585 7.19668 17.9343 6.78973 17.7579 6.35923C17.6606 6.12244 17.6459 5.87498 17.7223 5.63374C17.7379 5.58532 17.7641 5.50712 17.7961 5.49513C17.4989 5.09484 17.3132 4.66035 17.3776 4.21164C17.3896 4.12945 17.4153 4.05303 17.462 3.98861C17.4887 3.95174 17.5509 3.88998 17.5784 3.95751C17.6459 4.12367 17.7272 4.27739 17.8116 4.43688C18.2875 5.33652 19.0249 6.00604 19.7611 6.67466C20.0703 6.95544 20.3791 7.23577 20.6647 7.5321C20.8802 7.75557 21.0521 7.97904 21.0784 8.27003C21.0961 8.46996 21.0224 8.50905 20.8851 8.36066C20.0396 7.44814 19.0578 6.82882 18.2066 5.96783C18.0853 5.84521 17.9702 5.71815 17.8663 5.58665L17.8654 5.58576ZM21.8238 8.49395C21.6097 8.25004 21.408 7.99636 21.4804 7.68004C21.484 7.66405 21.5048 7.56542 21.5266 7.51522C21.5479 7.46591 21.5773 7.51256 21.5986 7.53655C21.8727 7.8422 22.149 8.16741 22.3832 8.4784C22.62 8.79294 22.8305 9.10482 22.8141 9.51221C22.8088 9.64327 22.7821 9.65749 22.6688 9.49711C22.4147 9.13858 22.1108 8.82093 21.8238 8.49395ZM21.5462 8.58191C21.5715 8.61168 21.5968 8.64144 21.6226 8.67076C21.6746 8.72985 21.7452 8.80893 21.8163 8.88846C22.0015 9.09549 22.1877 9.3034 22.3543 9.52199C22.3694 9.54198 22.3845 9.56197 22.3996 9.58241C22.5045 9.7259 22.5751 9.85297 22.6115 9.98047C22.6471 10.1049 22.6422 10.1777 22.6275 10.287C22.624 10.311 22.6204 10.3354 22.6173 10.3599C22.6124 10.3843 22.6026 10.3936 22.5689 10.3541C22.2548 9.98403 21.6568 9.40025 21.4253 9.0133C21.3427 8.87468 21.3009 8.72186 21.3365 8.51394C21.3667 8.3389 21.3973 8.41264 21.5004 8.52727C21.5155 8.54593 21.5311 8.5637 21.5462 8.58191ZM19.7584 8.63167C20.1632 8.94177 20.8207 9.49888 20.8989 10.0307C20.9202 10.1755 20.9104 10.3412 20.7491 10.1648C20.0081 9.3545 19.419 9.14213 18.6988 8.48328C18.3572 8.17096 18.0831 7.76801 18.0373 7.35973C18.0187 7.19135 18.0102 7.01808 18.1702 7.222C18.3799 7.4899 18.6442 7.74224 18.9205 7.97282C19.1729 8.18296 19.4639 8.40598 19.7584 8.63167ZM21.555 10.1804C21.3307 9.92894 21.1619 9.69925 21.2441 9.38382C21.2676 9.29407 21.3 9.26697 21.3578 9.34339C21.5399 9.58463 21.7878 9.85341 22.0153 10.0995C22.273 10.3785 22.516 10.6957 22.5587 11.0778C22.5658 11.1422 22.5475 11.1631 22.4956 11.112C22.1984 10.8184 21.8345 10.4936 21.555 10.1804ZM23.3828 9.58463C23.1167 10.6393 23.0389 11.1591 23.2233 12.196C23.3037 12.6479 23.333 12.7247 23.4552 13.1761C23.0065 12.9091 22.8141 12.3777 22.7452 11.8877C22.7084 11.6252 22.7066 11.3368 22.7621 10.9405C22.8026 10.6526 22.867 10.3679 22.9541 10.0849C22.9829 9.99113 23.1531 9.54198 23.301 9.29718C23.3734 9.17723 23.4285 9.08616 23.4827 9.14924C23.5298 9.20433 23.4077 9.48555 23.3828 9.58463ZM12.7838 3.95707C13.9532 4.27872 16.3598 4.88381 16.9506 6.07179C16.9751 6.1211 17.0968 6.40544 16.9484 6.24683C16.868 6.16109 16.7121 6.03758 16.5792 5.95273C16.1261 5.66439 15.6649 5.45381 15.19 5.28543C14.4232 5.01354 13.7181 4.8736 12.9416 4.69367C11.5701 4.37601 10.0902 3.98417 9.578 3.31732C9.48426 3.19515 9.42517 3.06809 9.39585 2.91703C9.32476 2.55229 9.45804 2.15156 9.7677 1.9352C9.81301 1.90366 9.82412 1.9001 9.84012 1.9623C10.1418 3.1325 11.4857 3.60032 12.7838 3.95707ZM13.3299 5.05797C14.7129 5.37295 16.6139 5.88786 17.4602 7.13937C17.5189 7.226 17.5433 7.29575 17.3771 7.19357C17.3536 7.17935 17.3296 7.16158 17.3061 7.14337C16.2829 6.35168 14.6267 6.0127 13.3823 5.79101C12.268 5.60397 11.2982 5.37251 10.5714 5.06685C8.51308 4.20053 9.15017 3.08808 9.22169 3.24357C9.67263 4.22496 11.6701 4.67989 13.3299 5.05797ZM13.3356 6.05402C13.9483 6.16287 14.6622 6.30103 15.3486 6.50895C15.7138 6.61957 16.0701 6.74974 16.3971 6.90613C16.6907 7.04652 16.9169 7.17669 17.1488 7.41171C17.1834 7.4468 17.2203 7.55654 17.1386 7.52544C15.541 6.91368 13.2996 6.85015 11.5523 6.40233C10.6287 6.16553 9.43228 5.80923 9.17505 4.75053C9.14172 4.6559 9.14084 4.39334 9.26301 4.5284C9.28034 4.5475 9.30655 4.57594 9.33143 4.60304C9.51447 4.80118 9.76637 4.96201 10.0014 5.08996C10.7811 5.51423 11.9491 5.82078 13.3356 6.05402ZM13.5844 7.0514C13.9669 7.10827 14.5969 7.22956 14.8741 7.51433C14.9292 7.57075 15.0647 7.70981 14.8826 7.67427C13.3925 7.3815 11.7731 7.57386 10.3621 6.94389C10.1711 6.85859 9.9885 6.77684 9.82723 6.67511C9.5429 6.49562 9.1355 6.07579 9.32254 5.71948C9.34431 5.67861 9.36963 5.6524 9.40784 5.69061C9.57444 5.85854 9.76992 5.99893 9.98228 6.11799C10.4581 6.38544 11.0077 6.53961 11.4852 6.66178C12.1388 6.82927 12.8567 6.943 13.5844 7.0514ZM13.1677 7.74802C13.584 7.77867 14.0003 7.80888 14.4076 7.86575C14.7151 7.90884 14.9883 7.97904 15.1882 8.19184C15.3255 8.33801 15.2913 8.41442 15.0918 8.38243C13.8634 8.18473 12.7088 8.30247 11.5079 8.14919C10.7829 8.05678 10.0907 7.83154 9.77259 7.27754C9.73127 7.20557 9.70461 7.12915 9.7015 7.05007C9.69973 7.00476 9.71083 6.91768 9.77392 6.95366C9.92986 7.04252 10.0885 7.1136 10.2528 7.18735C11.1823 7.6023 12.1761 7.6756 13.1677 7.74802ZM15.9146 7.90884C15.5956 7.84887 15.2806 7.77334 15.142 7.47968C15.1349 7.46502 15.0905 7.37483 15.0767 7.32152C15.0634 7.26954 15.1149 7.2882 15.1465 7.29397C15.5508 7.36595 15.9688 7.45169 16.3447 7.55209C16.725 7.65383 17.083 7.76934 17.3216 8.10032C17.3985 8.20695 17.386 8.23405 17.1981 8.17807C16.7769 8.05234 16.3424 7.98926 15.9146 7.90884ZM15.7502 8.14919C15.7884 8.15719 15.8266 8.16474 15.8653 8.17185C15.9426 8.18651 16.047 8.20517 16.1523 8.22383C16.426 8.2727 16.7005 8.32157 16.9666 8.39087C16.9911 8.39709 17.0151 8.40376 17.0395 8.41042C17.2101 8.45885 17.3443 8.51527 17.4518 8.59346C17.5562 8.66943 17.5975 8.72985 17.6535 8.82493C17.6655 8.84625 17.6779 8.86713 17.6904 8.88846C17.7015 8.91067 17.6997 8.924 17.6486 8.91334C17.1732 8.8156 16.3424 8.72452 15.9217 8.56236C15.7711 8.50416 15.644 8.40953 15.5441 8.22383C15.4597 8.067 15.5294 8.10654 15.6814 8.1332C15.7045 8.13853 15.7267 8.14431 15.7502 8.14919ZM14.7884 8.60901C15.1562 8.65566 15.3979 8.72052 15.6178 8.94444C15.7898 9.11948 15.7742 9.18345 15.5023 9.13458C14.4179 8.9391 13.2201 9.04662 12.1343 9.01374C11.5652 8.99641 10.9806 8.93777 10.5763 8.70764C10.3537 8.58102 10.1893 8.39576 10.1009 8.15808C10.0734 8.08389 10.0223 7.93683 10.1542 8.01458C10.2253 8.05678 10.2999 8.09499 10.3772 8.13009C10.7073 8.27936 11.0876 8.36511 11.4746 8.41442C12.0432 8.48684 12.5959 8.50016 13.1508 8.51305C13.691 8.52593 14.233 8.53837 14.7884 8.60901ZM13.1926 9.28386C13.9878 9.27586 14.8035 9.26742 15.5459 9.41447C15.7382 9.45268 15.9808 9.54331 16.1336 9.68903C16.2398 9.78988 16.334 9.92627 16.0981 9.88717C14.8235 9.67392 13.7239 9.82231 12.5044 9.82897C11.9708 9.83208 11.3906 9.6877 11.0534 9.34339C10.9348 9.2221 10.8215 9.09104 11.0734 9.15324C11.4039 9.23454 11.7674 9.27053 12.1272 9.28164C12.4551 9.29141 12.8216 9.28741 13.1926 9.28386ZM16.7423 9.40248C16.4109 9.3425 16.1359 9.26609 16.0066 8.96709C15.9697 8.88179 15.979 8.84048 16.0714 8.86535C16.3633 8.9431 16.7245 9.00175 17.0555 9.0555C17.43 9.11637 17.8174 9.21633 18.0866 9.49089C18.132 9.53709 18.1306 9.56463 18.0582 9.55664C17.6428 9.50866 17.1555 9.47667 16.7423 9.40248ZM16.6854 9.66593C17.1475 9.74945 17.5557 9.73745 17.9827 9.77433C18.2013 9.79343 18.3421 9.84097 18.4976 9.9547C18.6144 10.04 18.5833 10.0569 18.4638 10.0671C18.2226 10.0875 17.9614 10.0938 17.7161 10.0978C17.4842 10.1018 17.2741 10.1133 17.0564 10.0693C16.8076 10.0191 16.6512 9.93116 16.5024 9.73523C16.4486 9.66459 16.3971 9.60551 16.5357 9.63616C16.5846 9.64682 16.6348 9.65704 16.6854 9.66593ZM18.5367 10.6971C17.9463 10.7611 17.4202 10.8801 17.0071 10.3821C16.976 10.3443 16.9542 10.323 17.0284 10.3368C17.2372 10.3759 17.4282 10.3719 17.6322 10.3674C17.6393 10.3674 17.6197 10.3679 17.7206 10.3661C17.865 10.3639 18.0178 10.3603 18.1848 10.3528C18.2697 10.3492 18.3545 10.3443 18.4381 10.3377C18.7877 10.311 18.9641 10.3816 19.2231 10.5349C19.3355 10.6016 19.232 10.6104 19.1693 10.6167C18.8974 10.6429 18.6953 10.6802 18.5367 10.6971ZM17.645 10.9996C17.9103 11.0227 18.2008 11.0041 18.4536 10.9756C18.4723 10.9734 18.4203 10.9792 18.5651 10.9636C18.6291 10.9565 18.7028 10.9463 18.7855 10.9343C18.9072 10.917 19.0498 10.8979 19.2133 10.881C19.6522 10.8361 19.7686 10.8575 20.0317 11.0143C20.0938 11.0516 20.1729 11.1387 20.0357 11.1516C19.69 11.184 19.3381 11.2302 19.0138 11.2857C18.387 11.3928 18.0742 11.4599 17.5966 11.0831C17.5135 11.0174 17.5899 10.9947 17.645 10.9996ZM16.705 10.8552C16.9569 10.9103 17.1337 10.9987 17.2781 11.1178C17.3998 11.2178 17.3922 11.2693 17.2314 11.2475C16.5326 11.1542 15.9151 11.2218 15.218 11.2604C14.7884 11.2844 14.413 11.2675 14.0687 10.9614C13.9705 10.8743 13.9172 10.8099 14.078 10.8024C14.5938 10.7775 15.9422 10.6882 16.705 10.8552ZM15.5854 11.5061C16.1701 11.4688 16.7138 11.4341 17.3136 11.5292C17.5357 11.5643 17.6832 11.6096 17.7805 11.6527C18.0849 11.7869 18.052 11.858 17.7588 11.8504C16.896 11.8277 16.3918 11.9095 15.4988 11.9601C15.2189 11.9761 15.003 11.8797 14.8026 11.7153C14.5809 11.5336 14.7564 11.5487 14.9501 11.5407L15.0292 11.5372C15.2433 11.5279 15.4161 11.5168 15.5854 11.5061ZM16.2776 12.1738C16.7912 12.1334 17.2274 12.0992 17.8561 12.121C18.076 12.1285 18.315 12.1876 18.5189 12.2933C18.6686 12.3711 18.6082 12.4048 18.4754 12.4097C17.6139 12.4426 16.7054 12.6861 16.0452 12.6181C15.8106 12.5941 15.7058 12.5563 15.5494 12.4311C15.4201 12.3275 15.2824 12.2405 15.5143 12.2271C15.8244 12.2094 16.0581 12.1912 16.2776 12.1738ZM17.4131 12.7896C17.8343 12.7314 18.2755 12.6701 18.6966 12.6741C18.9174 12.6763 19.1404 12.7629 19.3421 12.8682C19.4603 12.93 19.5034 12.9615 19.3577 12.9606C18.6415 12.9549 17.9867 13.1774 17.2443 13.2374C16.7725 13.2756 16.5952 13.245 16.2967 13.037C16.1483 12.9335 16.123 12.9011 16.3531 12.8971C16.681 12.8918 17.0395 12.8416 17.4131 12.7896ZM18.9054 13.2654C19.3062 13.1916 19.6469 13.2339 20.029 13.3871C20.097 13.4147 20.057 13.4356 20.0108 13.4369C19.319 13.4578 18.7468 13.9056 18.0182 13.6208C17.9285 13.5857 17.6855 13.4262 17.9627 13.404C18.2963 13.3769 18.6029 13.3209 18.9054 13.2654ZM20.8966 12.8513C20.5186 12.9469 20.3 13.0641 19.7971 12.8149C19.6944 12.7643 19.7002 12.7301 19.8135 12.7158C19.9037 12.7047 19.9966 12.6874 20.0947 12.6656C20.1783 12.647 20.2658 12.6256 20.3591 12.6021C20.392 12.5937 20.4635 12.5746 20.5332 12.5563C20.766 12.4946 20.9677 12.4413 21.2734 12.4208C21.5359 12.4035 21.7483 12.459 21.8971 12.6488C21.9527 12.7194 21.9913 12.7838 21.8718 12.7607C21.4982 12.6883 21.1397 12.79 20.8966 12.8513ZM20.2929 12.3426C19.7784 12.4728 19.455 12.5372 19.0551 12.3195C18.9503 12.2627 18.8601 12.2147 19.0498 12.1978C19.3501 12.1712 19.6545 12.1041 19.9583 12.0374C20.232 11.977 20.5048 11.917 20.7598 11.8917C20.9731 11.8704 21.1645 11.8833 21.3307 11.9735C21.4746 12.0517 21.5382 12.1392 21.3245 12.1494C20.8815 12.1707 20.6421 12.2542 20.2929 12.3426ZM20.8291 11.6176C20.2245 11.658 19.5652 11.8975 18.9543 11.9366C18.7179 11.9517 18.5438 11.9193 18.3092 11.7358C18.2332 11.6762 18.2181 11.6429 18.3314 11.6425C18.7268 11.6407 19.26 11.5123 19.6451 11.4643C19.8042 11.4443 19.9615 11.4275 20.1134 11.4137C20.1592 11.4097 20.2049 11.4057 20.2498 11.4021C20.4724 11.3839 20.6527 11.4257 20.8313 11.5345C20.8975 11.575 20.9411 11.6101 20.8291 11.6176ZM13.038 10.5549C12.7012 10.5354 12.3884 10.4585 12.1103 10.2284C12.0446 10.1737 11.8824 10.0444 12.081 10.0702C12.2227 10.0889 12.3653 10.0973 12.5048 10.0969C12.8531 10.0951 13.1943 10.0813 13.5329 10.068C14.2566 10.0396 14.9665 10.0111 15.728 10.1044C15.9799 10.1355 16.4193 10.2817 16.6805 10.4585C16.8525 10.5749 16.7054 10.5842 16.585 10.5682C15.6543 10.4443 14.9074 10.4972 14.0762 10.5349C13.743 10.55 13.3689 10.574 13.038 10.5549ZM20.6327 13.2796C20.5301 13.229 20.5359 13.1948 20.6492 13.1805C20.7394 13.1694 20.8322 13.1521 20.9304 13.1303C21.2152 13.0673 21.7114 12.986 21.9194 13.2516C21.9749 13.3223 22.0135 13.3867 21.894 13.3636C21.4844 13.2841 20.9637 13.4435 20.6327 13.2796ZM8.63126 20.2102C8.63126 20.5114 8.49043 20.662 8.2092 20.662C7.97019 20.662 7.85112 20.5581 7.85112 20.3506C7.85112 20.2689 7.86712 20.1924 7.8991 20.1218C7.91199 20.0934 7.92931 20.0792 7.95064 20.0792C7.97374 20.0792 7.98973 20.0965 7.99995 20.1316C8.01506 20.1893 8.03683 20.2249 8.06437 20.24C8.09503 20.2569 8.159 20.2649 8.25718 20.2649C8.37847 20.2649 8.43889 20.2502 8.43889 20.2204C8.43889 20.208 8.42956 20.1924 8.41135 20.1733C8.3447 20.1045 8.2292 20.0263 8.06482 19.9392L8.20965 19.6304C8.21853 19.6127 8.22653 19.6038 8.23497 19.6038C8.23986 19.6038 8.24785 19.6065 8.25896 19.6118C8.32605 19.646 8.39357 19.702 8.46199 19.7802C8.57528 19.9094 8.63126 20.0529 8.63126 20.2102ZM9.45538 20.5856C9.45538 20.8153 9.3954 20.9935 9.27456 21.1214C9.26034 21.1361 9.24168 21.1436 9.21814 21.1436H8.78542C8.73433 21.1436 8.70901 21.1227 8.70901 21.081C8.70901 21.0583 8.71967 21.0414 8.74099 21.0312C8.8223 20.9926 8.92225 20.9321 9.04132 20.8504C9.19637 20.7447 9.27367 20.6696 9.27367 20.6243C9.27367 20.5874 9.20481 20.5048 9.06664 20.3755L9.21414 20.0712C9.22303 20.0538 9.23413 20.0516 9.24835 20.0645C9.32343 20.132 9.37541 20.2009 9.40518 20.2711C9.43805 20.3506 9.45538 20.4559 9.45538 20.5856ZM10.3581 20.6638H10.2595C10.2435 20.8691 10.1889 21.0219 10.0951 21.1214C10.0818 21.1361 10.0631 21.1436 10.0396 21.1436H9.60687C9.55578 21.1436 9.53046 21.1227 9.53046 21.081C9.53046 21.0583 9.54157 21.0414 9.56334 21.0312C9.64286 20.9939 9.73838 20.9401 9.85033 20.87C10.0014 20.7753 10.0782 20.7091 10.0809 20.6718C9.95651 20.6718 9.87521 20.6647 9.83745 20.6496C9.75482 20.6176 9.7135 20.5425 9.7135 20.4248C9.7135 20.3177 9.73127 20.2173 9.76681 20.1236C9.81612 19.9939 9.88854 19.929 9.9845 19.929C10.1187 19.929 10.2066 20.0343 10.2484 20.2444H10.3572L10.3581 20.6638ZM10.0689 20.3231C10.0689 20.3035 10.0543 20.2849 10.0258 20.2675C9.99916 20.2511 9.97562 20.2431 9.95518 20.2431C9.89876 20.2431 9.87077 20.264 9.87077 20.3062C9.87077 20.3293 9.90542 20.3408 9.97473 20.3408C10.0378 20.3408 10.0689 20.3346 10.0689 20.3231ZM11.5221 20.6638H10.3057V20.2444H11.5221V20.6638ZM11.9233 20.1791C11.9233 20.3506 11.8989 20.471 11.8504 20.5412C11.7936 20.6229 11.6892 20.6638 11.5363 20.6638H11.4644V20.2444H11.6723C11.7083 20.2444 11.7269 20.2342 11.7269 20.2138C11.7269 20.2036 11.7216 20.1916 11.7114 20.1778C11.6732 20.1285 11.6243 20.0769 11.5639 20.0236C11.555 20.0152 11.555 20.0041 11.5639 19.9907L11.7358 19.7415C11.7451 19.7282 11.7518 19.7215 11.7562 19.7215C11.7616 19.7215 11.7696 19.7273 11.7794 19.7397C11.8753 19.8579 11.9233 20.0045 11.9233 20.1791ZM11.8167 19.4243C11.826 19.4332 11.826 19.4421 11.8162 19.451L11.6927 19.5745C11.6838 19.5825 11.6749 19.5816 11.6661 19.5731L11.5403 19.4527C11.5301 19.443 11.5306 19.4319 11.5426 19.4199L11.6576 19.3021C11.6674 19.2919 11.6781 19.2919 11.6892 19.3021L11.8167 19.4243ZM13.803 20.6643H13.7461C13.727 20.6643 13.7048 20.6496 13.6795 20.6198C13.6475 20.5821 13.6142 20.5545 13.58 20.5372C13.52 20.5074 13.4391 20.4928 13.3374 20.4928C13.2783 20.4928 13.2299 20.4994 13.1917 20.5128C13.169 20.5208 13.1575 20.5283 13.1575 20.5363C13.1575 20.551 13.1926 20.5585 13.2619 20.5585C13.3747 20.5585 13.4516 20.5647 13.4938 20.5772C13.5782 20.6016 13.6204 20.6563 13.6204 20.7411C13.6204 21.0046 13.4063 21.1365 12.978 21.1365C12.7336 21.1365 12.5675 21.0788 12.4795 20.9624C12.4293 20.8953 12.404 20.8011 12.404 20.6794C12.404 20.5958 12.4213 20.5079 12.4555 20.4159C12.4915 20.3182 12.5293 20.2693 12.5684 20.2693C12.6168 20.2693 12.6412 20.2968 12.6412 20.3515C12.6412 20.3706 12.6386 20.3986 12.6323 20.435C12.6266 20.4723 12.623 20.4999 12.623 20.519C12.623 20.6936 12.7745 20.7811 13.0775 20.7811C13.2383 20.7811 13.3623 20.7718 13.4498 20.7536C13.4818 20.7469 13.4978 20.7384 13.4978 20.7282C13.4978 20.718 13.4818 20.7122 13.4498 20.7096C13.3943 20.7047 13.337 20.702 13.2774 20.702C13.1859 20.702 13.1228 20.6962 13.0873 20.6847C13.0273 20.6647 12.9975 20.6252 12.9975 20.5652C12.9975 20.4395 13.0877 20.3497 13.2685 20.2968C13.3845 20.2626 13.5249 20.2453 13.6884 20.2453H13.8034L13.803 20.6643ZM14.9656 20.6643H13.7492V20.2449H14.9656V20.6643ZM15.4934 20.6643H15.4224C15.3339 20.6643 15.2655 20.6234 15.2167 20.5416C15.1687 20.6234 15.0963 20.6643 14.9981 20.6643H14.9079V20.2449H14.9656C15.031 20.2449 15.0776 20.2253 15.1034 20.1862C15.1096 20.1769 15.122 20.1414 15.1402 20.0787C15.1518 20.0396 15.1731 20.0201 15.2038 20.0201C15.2335 20.0201 15.2526 20.0396 15.2611 20.0787C15.2744 20.1387 15.2846 20.1747 15.2917 20.1862C15.3148 20.2253 15.3584 20.2449 15.4224 20.2449H15.4934V20.6643ZM15.4366 19.6513C15.4437 19.658 15.4432 19.6646 15.4348 19.6726L15.3268 19.7824C15.3188 19.7904 15.3108 19.7904 15.3028 19.7824L15.1976 19.6815L15.0976 19.7824C15.0896 19.7899 15.0816 19.7899 15.0732 19.7819L14.9639 19.6744C14.9554 19.666 14.9559 19.6567 14.9661 19.6469L15.0674 19.5438C15.0767 19.5345 15.0856 19.5345 15.0949 19.5438L15.198 19.6429L15.2957 19.5438C15.3051 19.5345 15.3144 19.5345 15.3233 19.5438L15.4366 19.6513ZM16.0257 20.6643H15.9546C15.8662 20.6643 15.7978 20.6225 15.7489 20.5394C15.7009 20.6225 15.6285 20.6643 15.5303 20.6643H15.4401V20.2449H15.4983C15.5636 20.2449 15.6098 20.2249 15.6356 20.1858C15.6418 20.1765 15.6543 20.1405 15.6725 20.0774C15.684 20.0378 15.7054 20.0183 15.736 20.0183C15.7658 20.0183 15.7849 20.0383 15.7933 20.0774C15.8067 20.1378 15.8169 20.1742 15.824 20.1858C15.8471 20.2253 15.8906 20.2449 15.9546 20.2449H16.0257V20.6643ZM15.9666 20.9348C15.9755 20.9415 15.975 20.949 15.9661 20.9579L15.8564 21.065C15.8484 21.073 15.8409 21.073 15.8324 21.065L15.7293 20.965L15.6281 21.065C15.6201 21.073 15.6121 21.073 15.6041 21.065L15.4943 20.9588C15.485 20.9499 15.4859 20.9401 15.497 20.929L15.5983 20.8269C15.6076 20.8175 15.6174 20.8175 15.6267 20.8269L15.7293 20.9259L15.8275 20.8269C15.8369 20.8175 15.8462 20.8175 15.856 20.8269L15.9666 20.9348ZM16.804 19.3195L16.7938 19.4052L16.0843 19.6358L16.1021 19.5358L16.804 19.3195ZM16.7894 19.4896L16.7698 19.7415C16.7685 19.7544 16.7672 19.7624 16.7658 19.7646C16.7636 19.7691 16.7569 19.7726 16.7467 19.7762L16.3833 19.8757C16.4766 19.9876 16.5233 20.104 16.5233 20.2253C16.5233 20.4044 16.4651 20.5305 16.3482 20.6029C16.282 20.6443 16.2056 20.6647 16.119 20.6647H15.9697V20.2453H16.0563C16.1439 20.2453 16.2105 20.2404 16.2558 20.2306C16.2754 20.2262 16.2851 20.2173 16.2851 20.2031C16.2851 20.1951 16.2811 20.1862 16.2731 20.1764C16.2394 20.1347 16.159 20.0552 16.0315 19.9383L16.075 19.7064C16.075 19.7029 16.0777 19.6984 16.0821 19.6926L16.7729 19.4714C16.7809 19.4687 16.7858 19.4683 16.7876 19.4696C16.7889 19.4727 16.7903 19.4789 16.7894 19.4896Z" fill="#2E0068"/>
</svg>
